<?xml version="1.0" encoding="UTF-8"?>
<svg id="Ebene_1" data-name="Ebene 1" xmlns="http://www.w3.org/2000/svg" viewBox="0 0 511.34 368.91">
  <defs>
    <style>
      .cls-1 {
        fill: none;
        stroke: #aacb58;
        stroke-miterlimit: 10;
      }

      .cls-2 {
        fill: #aacb58;
      }
    </style>
  </defs>
  <g>
    <polygon class="cls-1" points="425.59 1.06 383.12 25.58 383.12 74.62 425.59 99.14 468.06 74.62 468.06 25.58 425.59 1.06"/>
    <polygon class="cls-1" points="340.66 1.06 298.19 25.58 298.19 74.62 340.66 99.14 383.12 74.62 383.12 25.58 340.66 1.06"/>
    <polygon class="cls-1" points="340.66 50.1 298.19 74.62 298.19 123.66 340.66 148.17 383.12 123.66 383.12 74.62 340.66 50.1"/>
    <polygon class="cls-1" points="425.59 50.1 383.12 74.62 383.12 123.66 425.59 148.17 468.06 123.66 468.06 74.62 425.59 50.1"/>
    <polygon class="cls-1" points="383.02 74.44 340.55 98.95 340.55 147.99 383.02 172.51 425.49 147.99 425.49 98.95 383.02 74.44"/>
    <polyline class="cls-1" points="340.55 1.13 340.55 50.16 383.02 74.68 425.49 50.16 425.49 1.13"/>
    <polygon class="cls-1" points="298.51 74.44 256.04 98.95 256.04 147.99 298.51 172.51 340.97 147.99 340.97 98.95 298.51 74.44"/>
    <polygon class="cls-1" points="298.51 123.23 256.04 147.75 256.04 196.78 298.51 221.3 340.97 196.78 340.97 147.75 298.51 123.23"/>
    <polygon class="cls-1" points="340.66 147.44 298.19 171.96 298.19 221 340.66 245.52 383.12 221 383.12 171.96 340.66 147.44"/>
    <polygon class="cls-1" points="383.12 123.66 340.66 148.17 340.66 197.21 383.12 221.73 425.59 197.21 425.59 148.17 383.12 123.66"/>
    <polygon class="cls-1" points="468.06 123.66 425.59 148.17 425.59 197.21 468.06 221.73 510.52 197.21 510.52 148.17 468.06 123.66"/>
    <polygon class="cls-1" points="425.17 147.44 382.7 171.96 382.7 221 425.17 245.52 467.64 221 467.64 171.96 425.17 147.44"/>
    <polygon class="cls-1" points="468.38 74.44 425.91 98.95 425.91 147.99 468.38 172.51 510.84 147.99 510.84 98.95 468.38 74.44"/>
    <polyline class="cls-2" points="383.44 172.88 425.59 148.54 383.12 124.02 340.76 148.48 383.02 172.88 383.02 221.91"/>
  </g>
  <g>
    <polygon class="cls-1" points="340.27 .58 297.8 25.1 297.8 74.13 340.27 98.65 382.74 74.13 382.74 25.1 340.27 .58"/>
    <polygon class="cls-1" points="255.34 .58 212.87 25.1 212.87 74.13 255.34 98.65 297.8 74.13 297.8 25.1 255.34 .58"/>
    <polygon class="cls-1" points="255.34 49.61 212.87 74.13 212.87 123.17 255.34 147.69 297.8 123.17 297.8 74.13 255.34 49.61"/>
    <polygon class="cls-1" points="340.27 49.61 297.8 74.13 297.8 123.17 340.27 147.69 382.74 123.17 382.74 74.13 340.27 49.61"/>
    <polygon class="cls-1" points="297.7 73.95 255.23 98.47 255.23 147.5 297.7 172.02 340.16 147.5 340.16 98.47 297.7 73.95"/>
    <polyline class="cls-1" points="255.23 .64 255.23 49.67 297.7 74.19 340.16 49.67 340.16 .64"/>
    <polygon class="cls-1" points="213.19 73.95 170.72 98.47 170.72 147.5 213.19 172.02 255.65 147.5 255.65 98.47 213.19 73.95"/>
    <polygon class="cls-1" points="213.19 122.74 170.72 147.26 170.72 196.3 213.19 220.81 255.65 196.3 255.65 147.26 213.19 122.74"/>
    <polygon class="cls-1" points="255.34 146.95 212.87 171.47 212.87 220.51 255.34 245.03 297.8 220.51 297.8 171.47 255.34 146.95"/>
    <polygon class="cls-1" points="297.8 123.17 255.34 147.69 255.34 196.72 297.8 221.24 340.27 196.72 340.27 147.69 297.8 123.17"/>
    <polygon class="cls-1" points="382.74 123.17 340.27 147.69 340.27 196.72 382.74 221.24 425.2 196.72 425.2 147.69 382.74 123.17"/>
    <polygon class="cls-1" points="339.85 146.95 297.38 171.47 297.38 220.51 339.85 245.03 382.31 220.51 382.31 171.47 339.85 146.95"/>
    <polygon class="cls-1" points="383.05 73.95 340.59 98.47 340.59 147.5 383.05 172.02 425.52 147.5 425.52 98.47 383.05 73.95"/>
  </g>
  <g>
    <polygon class="cls-1" points="339.5 147.56 297.03 172.08 297.03 221.12 339.5 245.64 381.96 221.12 381.96 172.08 339.5 147.56"/>
    <polygon class="cls-1" points="254.56 147.56 212.09 172.08 212.09 221.12 254.56 245.64 297.03 221.12 297.03 172.08 254.56 147.56"/>
    <polygon class="cls-1" points="254.56 196.6 212.09 221.12 212.09 270.16 254.56 294.67 297.03 270.16 297.03 221.12 254.56 196.6"/>
    <polygon class="cls-1" points="339.5 196.6 297.03 221.12 297.03 270.16 339.5 294.67 381.96 270.16 381.96 221.12 339.5 196.6"/>
    <polygon class="cls-1" points="296.92 220.94 254.46 245.45 254.46 294.49 296.92 319.01 339.39 294.49 339.39 245.45 296.92 220.94"/>
    <polyline class="cls-1" points="254.46 147.63 254.46 196.66 296.92 221.18 339.39 196.66 339.39 147.63"/>
    <polygon class="cls-1" points="212.41 220.94 169.94 245.45 169.94 294.49 212.41 319.01 254.88 294.49 254.88 245.45 212.41 220.94"/>
    <polygon class="cls-1" points="212.41 269.73 169.94 294.25 169.94 343.28 212.41 367.8 254.88 343.28 254.88 294.25 212.41 269.73"/>
    <polygon class="cls-1" points="254.56 293.94 212.09 318.46 212.09 367.5 254.88 343.28 297.03 367.5 297.03 318.46 254.56 293.94"/>
    <polygon class="cls-1" points="297.03 270.16 254.56 294.67 254.56 343.71 297.03 368.23 339.5 343.71 339.5 294.67 297.03 270.16"/>
    <polygon class="cls-1" points="381.96 270.16 339.5 294.67 339.5 343.71 381.96 368.23 424.43 343.71 424.43 294.67 381.96 270.16"/>
    <polygon class="cls-1" points="339.07 293.94 296.61 318.46 296.61 367.5 339.5 343.71 381.54 367.5 381.54 318.46 339.07 293.94"/>
    <polygon class="cls-1" points="382.28 220.94 339.81 245.45 339.81 294.49 382.28 319.01 424.75 294.49 424.75 245.45 382.28 220.94"/>
  </g>
  <g>
    <polygon class="cls-1" points="425.27 147.63 382.81 172.14 382.81 221.18 425.27 245.7 467.74 221.18 467.74 172.14 425.27 147.63"/>
    <polygon class="cls-1" points="425.27 196.66 382.81 221.18 382.81 270.22 425.27 294.74 467.74 270.22 467.74 221.18 425.27 196.66"/>
    <polygon class="cls-1" points="467.64 221 425.17 245.52 425.17 294.55 467.64 319.07 510.1 294.55 510.1 245.52 467.64 221"/>
    <polyline class="cls-1" points="425.17 147.69 425.17 196.72 467.64 221.24 510.1 196.72 510.1 147.69"/>
    <polygon class="cls-1" points="383.12 221 340.66 245.52 340.66 294.55 383.12 319.07 425.59 294.55 425.59 245.52 383.12 221"/>
    <polygon class="cls-1" points="383.12 269.79 340.66 294.31 340.66 343.34 383.12 367.86 425.59 343.34 425.59 294.31 383.12 269.79"/>
    <polygon class="cls-1" points="425.27 294 382.81 318.52 382.81 367.56 425.27 343.77 467.74 367.56 467.74 318.52 425.27 294"/>
    <polygon class="cls-1" points="467.74 270.22 425.27 294.74 425.27 343.77 467.74 368.29 510.21 343.77 510.21 294.74 467.74 270.22"/>
  </g>
  <g>
    <polygon class="cls-1" points="170.05 147.56 127.58 172.08 127.58 221.12 170.05 245.64 212.52 221.12 212.52 172.08 170.05 147.56"/>
    <polygon class="cls-1" points="85.12 147.56 42.65 172.08 42.65 221.12 85.12 245.64 127.58 221.12 127.58 172.08 85.12 147.56"/>
    <polygon class="cls-1" points="85.12 196.6 42.65 221.12 42.65 270.16 85.12 294.67 127.58 270.16 127.58 221.12 85.12 196.6"/>
    <polygon class="cls-1" points="170.05 196.6 127.58 221.12 127.58 270.16 170.05 294.67 212.52 270.16 212.52 221.12 170.05 196.6"/>
    <polygon class="cls-1" points="127.48 220.94 85.01 245.45 85.01 294.49 127.48 319.01 169.94 294.49 169.94 245.45 127.48 220.94"/>
    <polyline class="cls-1" points="85.01 147.63 85.01 196.66 127.48 221.18 169.94 196.66 169.94 147.63"/>
    <polygon class="cls-1" points="42.97 220.94 .5 245.45 .5 294.49 42.97 319.01 85.43 294.49 85.43 245.45 42.97 220.94"/>
    <polygon class="cls-1" points="42.97 269.73 .5 294.25 .5 343.28 42.97 367.8 85.43 343.28 85.43 294.25 42.97 269.73"/>
    <polygon class="cls-1" points="85.12 293.94 42.65 318.46 42.65 367.5 85.12 343.71 127.75 368.04 127.58 318.46 85.12 293.94"/>
    <polygon class="cls-1" points="127.58 270.16 85.12 294.67 85.12 343.71 127.58 368.23 170.05 343.71 170.05 294.67 127.58 270.16"/>
    <polygon class="cls-1" points="212.52 270.16 170.05 294.67 170.05 343.71 212.52 368.23 254.98 343.71 254.98 294.67 212.52 270.16"/>
    <polygon class="cls-1" points="169.63 293.94 127.16 318.46 127.78 367.86 169.94 343.28 212.09 367.5 212.09 318.46 169.63 293.94"/>
    <polygon class="cls-1" points="212.83 220.94 170.37 245.45 170.37 294.49 212.83 319.01 255.3 294.49 255.3 245.45 212.83 220.94"/>
  </g>
</svg>