<?xml version="1.0" encoding="UTF-8"?>
<svg id="Ebene_1" data-name="Ebene 1" xmlns="http://www.w3.org/2000/svg" viewBox="0 0 580.99 561.38">
  <defs>
    <style>
      .cls-1 {
        fill: #fff;
      }

      .cls-1, .cls-2 {
        stroke: #aacb55;
        stroke-miterlimit: 10;
      }

      .cls-3 {
        fill: #aacb55;
      }

      .cls-2 {
        fill: none;
        stroke-width: 2px;
      }
    </style>
  </defs>
  <g>
    <g>
      <path class="cls-3" d="m478.59,381.83c5.92,12.17,10.47,23.15,13.86,33.36-8.71-13.6-19.31-26.2-30.71-37.61-20.74-20.76-45.55-37.39-74.87-42.56-17.56-3.1-36.63-2.9-53.18,4.49-10.47-12.39-25.2-23.26-40.85-34.98-.13-.66-.21-1.05-.23-1.15v-.02c.23-.15.43-.3.66-.45,6.53-.64,31.99-3.25,54.16-7.95,16.64-3.52,29.71-14.16,35.82-21.66h.02c9.99,3.67,20.48,10.36,31.73,20.99,23.04,21.76,49.91,59.43,63.58,87.54Z"/>
      <path class="cls-3" d="m423.75,150.43c13.43-1.86,25.27-2.8,36.05-2.86-41.03,10.64-84.76,33.91-106.57,71.44-9.72,16.74-16.59,36.56-14.5,56.13v.02c-14.89,6.07-29.64,16.61-45.45,27.76-.92.09-1.45.13-1.58.15-.04-.15-.09-.28-.13-.43,2.09-5.59,10.42-29.32,10.42-52.17,0-17.88-7.05-36.48-10.89-42.91,6.56-8.37,16.17-16.27,29.75-23.7,27.81-15.19,71.95-29.11,102.9-33.44Z"/>
      <path class="cls-3" d="m349.21,381.34c-.39,10.63-3.52,22.66-10.14,36.61-13.56,28.64-41.09,65.82-63.6,87.52-9.78,9.42-18.82,17.17-27.49,23.54,29.45-35.79,51.64-84.38,42.67-131.32-2.97-15.59-8.93-31.2-19.69-43.1,8.52-13.75,14.27-31.05,20.55-49.48.71-.49,1.11-.75,1.11-.75l.23.17c1.09,5.36,6.32,28.17,19.61,46.62,11.75,16.3,19.43,24.22,36.75,30.18Z"/>
      <path class="cls-3" d="m291.68,304.67l-.17.45c-5.06,3.4-26.18,18.18-40.51,36.18-10.49,13.16-13.78,29.28-14.99,40.96v.02c-10.23,2.91-22.66,3.65-38.02,1.67-31.42-4.04-75.3-18.73-102.89-33.44-11.98-6.38-22.13-12.58-30.88-18.88,56.42,24,137.26,24,172.97-32.06,15.67,3.86,33.85,4.01,53.26,4.27.79.53,1.22.83,1.22.83Z"/>
      <path class="cls-3" d="m291.57,302.64c-.26.7-.43,1.11-.45,1.2h-.66c-5.25-3.5-26.57-17.21-48.22-24.24-22.19-7.2-41.39-4.8-42.14-4.7h-.02v-.02c-5.94-8.84-10.47-20.4-13.33-35.6-5.87-31.14-5.45-77.4,0-108.19,2.37-13.35,5.13-24.9,8.41-35.17-6.79,60.42,19.54,137.47,83.89,154.54h.06c1.18,16.15,6.69,33.55,12.47,52.17Z"/>
    </g>
    <g>
      <path class="cls-2" d="m200.08,274.9c9.31,13.88,22.06,20.99,37.12,24.67,15.67,3.86,33.85,4.01,53.26,4.27h.66c.28.02.55.02.83.02"/>
      <path class="cls-2" d="m195.15,95.93c-3.27,10.27-6.04,21.81-8.41,35.17-5.45,30.78-5.87,77.05,0,108.19,2.86,15.19,7.39,26.76,13.33,35.6"/>
      <path class="cls-2" d="m291.1,303.86l.02-.02c.02-.09.19-.51.45-1.2,2.09-5.59,10.42-29.32,10.42-52.17,0-17.88-7.05-36.48-10.89-42.91V1c-18.56,0-35.5,9.38-55.06,28.94-18.84,18.84-31.8,37.33-40.88,65.93"/>
      <path class="cls-2" d="m195.15,95.87v.06c-6.79,60.42,19.54,137.47,83.89,154.54"/>
      <path class="cls-2" d="m236.02,382.26c16.08-4.55,26.76-14.48,34.94-27.66,8.52-13.75,14.27-31.05,20.55-49.48l.17-.45c.08-.26.17-.55.26-.81"/>
      <path class="cls-2" d="m200.08,274.9v-.02c-8.03-2.6-196.44-63.81-196.44-63.81-5.74,17.66-2.05,36.67,10.49,61.31,12.11,23.75,25.69,41.79,50.1,59.26,8.74,6.3,18.9,12.51,30.88,18.88,27.59,14.71,71.46,29.39,102.89,33.44,15.36,1.97,27.79,1.24,38.02-1.67"/>
      <path class="cls-2" d="m200.34,274.98s-.04,0-.11-.04c0,0-.04,0-.06-.02-.02,0-.04,0-.08-.02"/>
      <line class="cls-2" x1="200.08" y1="274.9" x2="200.1" y2="274.9"/>
      <path class="cls-2" d="m291.68,304.67s-.43-.3-1.22-.83c-5.25-3.5-26.57-17.21-48.22-24.24-22.19-7.2-41.39-4.8-42.14-4.7"/>
      <path class="cls-2" d="m64.23,331.64c56.42,24,137.26,24,172.97-32.06.02,0,.02-.02.02-.02"/>
      <path class="cls-2" d="m292.62,304.37s-.39.26-1.11.75c-5.06,3.4-26.18,18.18-40.51,36.18-10.49,13.16-13.78,29.28-14.99,40.96v.02l-121.43,167.11c15.03,10.91,34.24,13.28,61.55,8.95,26.31-4.16,47.65-11.51,71.84-29.32,8.67-6.38,17.71-14.12,27.49-23.54,22.51-21.7,50.04-58.88,63.6-87.52,6.62-13.95,9.74-25.99,10.14-36.61.66-16.74-5.49-29.98-15.51-41.82-10.47-12.39-25.2-23.26-40.85-34.98l-.23-.17-.68-.51"/>
      <path class="cls-2" d="m247.98,529.02c29.45-35.79,51.64-84.38,42.67-131.32-2.97-15.59-8.93-31.2-19.69-43.1-.04-.04-.08-.09-.11-.13"/>
      <path class="cls-2" d="m292.62,303.39c-.23.15-.45.32-.68.47"/>
      <path class="cls-2" d="m383.26,273.3c-15.7-5.75-30.18-4.01-44.53,1.86-14.89,6.07-29.64,16.61-45.45,27.76-.23.15-.43.3-.66.45"/>
      <path class="cls-2" d="m292.62,303.37v.02c.02.09.09.49.23,1.15,1.09,5.36,6.32,28.17,19.61,46.62,11.75,16.3,19.43,24.22,36.75,30.18.02,0,.04.02.06.02l121.37,167.05c15.03-10.93,23.21-28.47,27.53-55.78,4.17-26.33,3.76-48.93-5.72-77.44-3.39-10.21-7.94-21.19-13.86-33.36-13.67-28.11-40.54-65.78-63.58-87.54-11.25-10.63-21.74-17.32-31.73-20.99"/>
      <path class="cls-2" d="m492.49,415.25s-.02-.04-.04-.06c-8.71-13.6-19.31-26.2-30.71-37.61-20.74-20.76-45.55-37.39-74.87-42.56-17.56-3.1-36.63-2.9-53.18,4.49-.06.02-.13.06-.19.08"/>
      <path class="cls-2" d="m291.68,303.07h.02c.13-.02.66-.06,1.58-.15,6.53-.64,31.99-3.25,54.16-7.95,16.64-3.52,29.71-14.16,35.82-21.66h.02l196.44-63.83c-5.74-17.66-19.9-30.86-44.53-43.42-23.75-12.09-45.36-18.69-75.39-18.49-10.78.06-22.62,1-36.05,2.86-30.95,4.33-75.09,18.24-102.9,33.44-13.58,7.43-23.19,15.33-29.75,23.7-10.32,13.15-13.15,27.46-12,42.91,1.18,16.15,6.69,33.55,12.47,52.17.04.15.09.28.13.43.08.26.17.53.24.79"/>
      <path class="cls-2" d="m459.84,147.55s-.02,0-.04.02c-41.03,10.64-84.76,33.91-106.57,71.44-9.72,16.74-16.59,36.56-14.5,56.13"/>
    </g>
  </g>
  <!--<circle class="cls-1" cx="291.67" cy="303.07" r="10.3"/>-->
</svg>