<?xml version="1.0" encoding="UTF-8"?>
<svg id="Ebene_1" data-name="Ebene 1" xmlns="http://www.w3.org/2000/svg" viewBox="0 0 515.5 498.09">
  <defs>
    <style>
      .cls-1 {
        fill: #aacb55;
      }

      .cls-2 {
        fill: none;
        stroke: #aacb55;
        stroke-miterlimit: 10;
        stroke-width: 2px;
      }
    </style>
  </defs>
  <g>
    <path class="cls-1" d="m424.55,338.74c5.25,10.79,9.29,20.53,12.29,29.59-7.72-12.06-17.13-23.23-27.23-33.36-18.4-18.41-40.39-33.16-66.39-37.74-15.58-2.75-32.49-2.57-47.16,3.99-9.29-10.99-22.35-20.63-36.22-31.02-.12-.58-.18-.93-.2-1.02v-.02c.2-.13.38-.27.58-.4,5.79-.57,28.37-2.89,48.03-7.05,14.76-3.12,26.35-12.56,31.77-19.21h.02c8.86,3.25,18.16,9.19,28.14,18.61,20.43,19.3,44.26,52.7,56.39,77.63Z"/>
    <path class="cls-1" d="m375.92,133.52c11.91-1.65,22.41-2.48,31.97-2.54-36.39,9.44-75.17,30.07-94.51,63.36-8.62,14.84-14.71,32.42-12.86,49.78v.02c-13.21,5.39-26.28,14.73-40.31,24.62-.82.08-1.28.12-1.4.13-.03-.13-.08-.25-.12-.38,1.85-4.95,9.24-26,9.24-46.26,0-15.86-6.25-32.35-9.66-38.06,5.82-7.42,14.34-14.43,26.38-21.01,24.67-13.48,63.81-25.82,91.26-29.65Z"/>
    <path class="cls-1" d="m309.81,338.31c-.35,9.42-3.12,20.1-8.99,32.47-12.02,25.4-36.44,58.37-56.4,77.62-8.67,8.36-16.69,15.23-24.38,20.88,26.12-31.74,45.8-74.83,37.84-116.46-2.64-13.83-7.92-27.67-17.46-38.23,7.56-12.19,12.66-27.53,18.23-43.88.63-.43.98-.67.98-.67l.2.15c.97,4.75,5.6,24.98,17.39,41.34,10.42,14.46,17.23,21.48,32.59,26.77Z"/>
    <path class="cls-1" d="m258.79,270.31l-.15.4c-4.49,3.02-23.22,16.13-35.92,32.09-9.31,11.67-12.22,25.97-13.29,36.32v.02c-9.07,2.59-20.1,3.24-33.72,1.48-27.87-3.59-66.78-16.61-91.24-29.65-10.62-5.65-19.63-11.16-27.38-16.74,50.03,21.28,121.73,21.28,153.4-28.44,13.89,3.42,30.02,3.55,47.23,3.79.7.47,1.08.73,1.08.73Z"/>
    <path class="cls-1" d="m258.69,268.51c-.23.62-.38.98-.4,1.07h-.58c-4.65-3.1-23.57-15.26-42.76-21.5-19.68-6.39-36.71-4.25-37.37-4.17h-.02v-.02c-5.27-7.84-9.29-18.1-11.82-31.57-5.2-27.62-4.84-68.65,0-95.95,2.1-11.84,4.55-22.08,7.45-31.19-6.02,53.59,17.33,121.91,74.4,137.06h.05c1.05,14.33,5.94,29.75,11.06,46.26Z"/>
  </g>
  <g>
    <path class="cls-2" d="m177.55,243.91c8.26,12.31,19.56,18.61,32.92,21.88,13.89,3.42,30.02,3.55,47.23,3.79h.58c.25.02.48.02.73.02"/>
    <path class="cls-2" d="m173.18,85.19c-2.9,9.11-5.35,19.35-7.45,31.19-4.84,27.3-5.2,68.33,0,95.95,2.54,13.48,6.55,23.73,11.82,31.57"/>
    <path class="cls-2" d="m258.27,269.6l.02-.02c.02-.08.17-.45.4-1.07,1.85-4.95,9.24-26,9.24-46.26,0-15.86-6.25-32.35-9.66-38.06V1c-16.46,0-31.49,8.32-48.83,25.67s-28.2,33.11-36.26,58.47"/>
    <path class="cls-2" d="m173.18,85.14v.05c-6.02,53.59,17.33,121.91,74.4,137.06"/>
    <path class="cls-2" d="m209.42,339.12c14.26-4.04,23.73-12.84,30.99-24.53,7.56-12.19,12.66-27.53,18.23-43.88l.15-.4c.07-.23.15-.48.23-.72"/>
    <path class="cls-2" d="m177.55,243.91v-.02c-7.12-2.3-174.22-56.59-174.22-56.59-5.09,15.66-1.82,32.52,9.31,54.37,10.74,21.06,22.78,37.06,44.43,52.55,7.76,5.59,16.76,11.09,27.38,16.74,24.47,13.04,63.38,26.07,91.24,29.65,13.63,1.75,24.65,1.1,33.72-1.48"/>
    <path class="cls-2" d="m177.79,243.98s-.03,0-.1-.03c0,0-.03,0-.05-.02-.02,0-.03,0-.07-.02"/>
    <line class="cls-2" x1="177.55" y1="243.91" x2="177.57" y2="243.91"/>
    <path class="cls-2" d="m258.79,270.31s-.38-.27-1.08-.73c-4.65-3.1-23.57-15.26-42.76-21.5-19.68-6.39-36.71-4.25-37.37-4.17"/>
    <path class="cls-2" d="m57.07,294.23c50.03,21.28,121.73,21.28,153.4-28.44.02,0,.02-.02.02-.02"/>
    <path class="cls-2" d="m259.62,270.05s-.35.23-.98.67c-4.49,3.02-23.22,16.13-35.92,32.09-9.31,11.67-12.22,25.97-13.29,36.32v.02l-107.69,148.2c13.33,9.67,30.37,11.77,54.59,7.94,23.33-3.69,42.26-10.21,63.71-26,7.69-5.65,15.71-12.52,24.38-20.88,19.96-19.25,44.38-52.22,56.4-77.62,5.87-12.37,8.64-23.05,8.99-32.47.58-14.84-4.87-26.58-13.76-37.09-9.29-10.99-22.35-20.63-36.22-31.02l-.2-.15-.6-.45"/>
    <path class="cls-2" d="m220.03,469.28c26.12-31.74,45.8-74.83,37.84-116.46-2.64-13.83-7.92-27.67-17.46-38.23-.03-.03-.07-.08-.1-.12"/>
    <path class="cls-2" d="m259.62,269.18c-.2.13-.4.28-.6.42"/>
    <path class="cls-2" d="m340.01,242.49c-13.93-5.1-26.77-3.55-39.49,1.65-13.21,5.39-26.28,14.73-40.31,24.62-.2.13-.38.27-.58.4"/>
    <path class="cls-2" d="m259.62,269.16v.02c.02.08.08.43.2,1.02.97,4.75,5.6,24.98,17.39,41.34,10.42,14.46,17.23,21.48,32.59,26.77.02,0,.03.02.05.02l107.64,148.15c13.33-9.69,20.58-25.25,24.42-49.47,3.7-23.35,3.34-43.4-5.07-68.68-3-9.06-7.04-18.8-12.29-29.59-12.12-24.93-35.96-58.34-56.39-77.63-9.97-9.42-19.28-15.36-28.14-18.61"/>
    <path class="cls-2" d="m436.87,368.38s-.02-.03-.03-.05c-7.72-12.06-17.13-23.23-27.23-33.36-18.4-18.41-40.39-33.16-66.39-37.74-15.58-2.75-32.49-2.57-47.16,3.99-.05.02-.12.05-.17.07"/>
    <path class="cls-2" d="m258.79,268.89h.02c.12-.02.58-.05,1.4-.13,5.79-.57,28.37-2.89,48.03-7.05,14.76-3.12,26.35-12.56,31.77-19.21h.02l174.22-56.6c-5.09-15.66-17.65-27.37-39.49-38.51-21.06-10.72-40.23-16.58-66.86-16.39-9.56.05-20.06.88-31.97,2.54-27.45,3.84-66.59,16.18-91.26,29.65-12.04,6.59-20.56,13.59-26.38,21.01-9.16,11.66-11.66,24.35-10.64,38.06,1.05,14.33,5.94,29.75,11.06,46.26.03.13.08.25.12.38.07.23.15.47.22.7"/>
    <path class="cls-2" d="m407.92,130.97s-.02,0-.03.02c-36.39,9.44-75.17,30.07-94.51,63.36-8.62,14.84-14.71,32.42-12.86,49.78"/>
  </g>
</svg>